<?xml version="1.0" encoding="UTF-8" standalone="no"?>
<!-- Created with Inkscape (http://www.inkscape.org/) -->

<svg
   xmlns:dc="http://purl.org/dc/elements/1.1/"
   xmlns:cc="http://creativecommons.org/ns#"
   xmlns:rdf="http://www.w3.org/1999/02/22-rdf-syntax-ns#"
   xmlns:svg="http://www.w3.org/2000/svg"
   xmlns="http://www.w3.org/2000/svg"
   xmlns:sodipodi="http://sodipodi.sourceforge.net/DTD/sodipodi-0.dtd"
   xmlns:inkscape="http://www.inkscape.org/namespaces/inkscape"
   width="24"
   height="24"
   id="svg2"
   version="1.1"
   inkscape:version="0.48.3.1 r9886"
   sodipodi:docname="notification_icon.svg"
   inkscape:export-filename="/home/maciej/dev/VielenGamesAndroidClient/app/src/main/res/drawable-mdpi/notification_icon.png"
   inkscape:export-xdpi="90"
   inkscape:export-ydpi="90">
  <defs
     id="defs4" />
  <sodipodi:namedview
     id="base"
     pagecolor="#ffffff"
     bordercolor="#666666"
     borderopacity="1.0"
     inkscape:pageopacity="0.0"
     inkscape:pageshadow="2"
     inkscape:zoom="16"
     inkscape:cx="3.6154557"
     inkscape:cy="7.0714286"
     inkscape:document-units="px"
     inkscape:current-layer="layer1"
     showgrid="false"
     units="px"
     inkscape:window-width="1535"
     inkscape:window-height="876"
     inkscape:window-x="65"
     inkscape:window-y="24"
     inkscape:window-maximized="1" />
  <metadata
     id="metadata7">
    <rdf:RDF>
      <cc:Work
         rdf:about="">
        <dc:format>image/svg+xml</dc:format>
        <dc:type
           rdf:resource="http://purl.org/dc/dcmitype/StillImage" />
        <dc:title></dc:title>
      </cc:Work>
    </rdf:RDF>
  </metadata>
  <g
     inkscape:label="Layer 1"
     inkscape:groupmode="layer"
     id="layer1"
     transform="translate(0,-1028.3609)">
    <path
       sodipodi:type="arc"
       style="fill:#ffffff;fill-opacity:1;stroke:none"
       id="path2991"
       sodipodi:cx="6.6875"
       sodipodi:cy="8.5"
       sodipodi:rx="0.4375"
       sodipodi:ry="0.4375"
       d="m 7.125,8.5 a 0.4375,0.4375 0 1 1 -0.875,0 0.4375,0.4375 0 1 1 0.875,0 z"
       transform="matrix(1.1428571,0,0,1.1428571,-6.1428569,1041.1466)" />
    <path
       sodipodi:type="arc"
       style="fill:#ffffff;fill-opacity:1;stroke:none"
       id="path2991-4"
       sodipodi:cx="6.6875"
       sodipodi:cy="8.5"
       sodipodi:rx="0.4375"
       sodipodi:ry="0.4375"
       d="m 7.125,8.5 a 0.4375,0.4375 0 1 1 -0.875,0 0.4375,0.4375 0 1 1 0.875,0 z"
       transform="matrix(1.1428571,0,0,1.1428571,14.857143,1041.1466)" />
    <path
       sodipodi:type="arc"
       style="fill:#ffffff;fill-opacity:1;stroke:none"
       id="path2991-3"
       sodipodi:cx="6.6875"
       sodipodi:cy="8.5"
       sodipodi:rx="0.4375"
       sodipodi:ry="0.4375"
       d="m 7.125,8.5 a 0.4375,0.4375 0 1 1 -0.875,0 0.4375,0.4375 0 1 1 0.875,0 z"
       transform="matrix(1.1428571,0,0,1.1428571,0.85714313,1041.1466)" />
    <path
       sodipodi:type="arc"
       style="fill:#ffffff;fill-opacity:1;stroke:none"
       id="path2991-3-5"
       sodipodi:cx="6.6875"
       sodipodi:cy="8.5"
       sodipodi:rx="0.4375"
       sodipodi:ry="0.4375"
       d="m 7.125,8.5 a 0.4375,0.4375 0 1 1 -0.875,0 0.4375,0.4375 0 1 1 0.875,0 z"
       transform="matrix(1.1428571,0,0,1.1428571,7.8571431,1041.1466)" />
    <path
       sodipodi:type="arc"
       style="fill:#ffffff;fill-opacity:1;stroke:none"
       id="path2991-42"
       sodipodi:cx="6.6875"
       sodipodi:cy="8.5"
       sodipodi:rx="0.4375"
       sodipodi:ry="0.4375"
       d="m 7.125,8.5 a 0.4375,0.4375 0 1 1 -0.875,0 0.4375,0.4375 0 1 1 0.875,0 z"
       transform="matrix(1.1428571,0,0,1.1428571,-6.1428569,1034.1466)" />
    <path
       sodipodi:type="arc"
       style="fill:#ffffff;fill-opacity:1;stroke:none"
       id="path2991-4-6"
       sodipodi:cx="6.6875"
       sodipodi:cy="8.5"
       sodipodi:rx="0.4375"
       sodipodi:ry="0.4375"
       d="m 7.125,8.5 a 0.4375,0.4375 0 1 1 -0.875,0 0.4375,0.4375 0 1 1 0.875,0 z"
       transform="matrix(1.1428571,0,0,1.1428571,14.857143,1034.1466)" />
    <path
       sodipodi:type="arc"
       style="fill:#ffffff;fill-opacity:1;stroke:none"
       id="path2991-3-3"
       sodipodi:cx="6.6875"
       sodipodi:cy="8.5"
       sodipodi:rx="0.4375"
       sodipodi:ry="0.4375"
       d="m 7.125,8.5 a 0.4375,0.4375 0 1 1 -0.875,0 0.4375,0.4375 0 1 1 0.875,0 z"
       transform="matrix(1.1428571,0,0,1.1428571,0.85714313,1034.1466)" />
    <path
       sodipodi:type="arc"
       style="fill:#ffffff;fill-opacity:1;stroke:none"
       id="path2991-3-5-6"
       sodipodi:cx="6.6875"
       sodipodi:cy="8.5"
       sodipodi:rx="0.4375"
       sodipodi:ry="0.4375"
       d="m 7.125,8.5 a 0.4375,0.4375 0 1 1 -0.875,0 0.4375,0.4375 0 1 1 0.875,0 z"
       transform="matrix(1.1428571,0,0,1.1428571,7.8571433,1034.1466)" />
    <path
       sodipodi:type="arc"
       style="fill:#ffffff;fill-opacity:1;stroke:none"
       id="path2991-32"
       sodipodi:cx="6.6875"
       sodipodi:cy="8.5"
       sodipodi:rx="0.4375"
       sodipodi:ry="0.4375"
       d="m 7.125,8.5 a 0.4375,0.4375 0 1 1 -0.875,0 0.4375,0.4375 0 1 1 0.875,0 z"
       transform="matrix(1.1428571,0,0,1.1428571,-6.1428569,1027.1466)" />
    <path
       sodipodi:type="arc"
       style="fill:#ffffff;fill-opacity:1;stroke:none"
       id="path2991-4-3"
       sodipodi:cx="6.6875"
       sodipodi:cy="8.5"
       sodipodi:rx="0.4375"
       sodipodi:ry="0.4375"
       d="m 7.125,8.5 a 0.4375,0.4375 0 1 1 -0.875,0 0.4375,0.4375 0 1 1 0.875,0 z"
       transform="matrix(1.1428571,0,0,1.1428571,14.857143,1027.1466)" />
    <path
       sodipodi:type="arc"
       style="fill:#ffffff;fill-opacity:1;stroke:none"
       id="path2991-3-32"
       sodipodi:cx="6.6875"
       sodipodi:cy="8.5"
       sodipodi:rx="0.4375"
       sodipodi:ry="0.4375"
       d="m 7.125,8.5 a 0.4375,0.4375 0 1 1 -0.875,0 0.4375,0.4375 0 1 1 0.875,0 z"
       transform="matrix(1.1428571,0,0,1.1428571,0.85714313,1027.1466)" />
    <path
       sodipodi:type="arc"
       style="fill:#ffffff;fill-opacity:1;stroke:none"
       id="path2991-3-5-1"
       sodipodi:cx="6.6875"
       sodipodi:cy="8.5"
       sodipodi:rx="0.4375"
       sodipodi:ry="0.4375"
       d="m 7.125,8.5 a 0.4375,0.4375 0 1 1 -0.875,0 0.4375,0.4375 0 1 1 0.875,0 z"
       transform="matrix(1.1428571,0,0,1.1428571,7.8571431,1027.1466)" />
    <path
       sodipodi:type="arc"
       style="fill:#ffffff;fill-opacity:1;stroke:none"
       id="path2991-7"
       sodipodi:cx="6.6875"
       sodipodi:cy="8.5"
       sodipodi:rx="0.4375"
       sodipodi:ry="0.4375"
       d="m 7.125,8.5 a 0.4375,0.4375 0 1 1 -0.875,0 0.4375,0.4375 0 1 1 0.875,0 z"
       transform="matrix(1.1428571,0,0,1.1428571,-6.1428576,1020.1466)" />
    <path
       sodipodi:type="arc"
       style="fill:#ffffff;fill-opacity:1;stroke:none"
       id="path2991-4-32"
       sodipodi:cx="6.6875"
       sodipodi:cy="8.5"
       sodipodi:rx="0.4375"
       sodipodi:ry="0.4375"
       d="m 7.125,8.5 a 0.4375,0.4375 0 1 1 -0.875,0 0.4375,0.4375 0 1 1 0.875,0 z"
       transform="matrix(1.1428571,0,0,1.1428571,14.857143,1020.1466)" />
    <path
       sodipodi:type="arc"
       style="fill:#ffffff;fill-opacity:1;stroke:none"
       id="path2991-3-58"
       sodipodi:cx="6.6875"
       sodipodi:cy="8.5"
       sodipodi:rx="0.4375"
       sodipodi:ry="0.4375"
       d="m 7.125,8.5 a 0.4375,0.4375 0 1 1 -0.875,0 0.4375,0.4375 0 1 1 0.875,0 z"
       transform="matrix(1.1428571,0,0,1.1428571,0.85714313,1020.1466)" />
    <path
       sodipodi:type="arc"
       style="fill:#ffffff;fill-opacity:1;stroke:none"
       id="path2991-3-5-0"
       sodipodi:cx="6.6875"
       sodipodi:cy="8.5"
       sodipodi:rx="0.4375"
       sodipodi:ry="0.4375"
       d="m 7.125,8.5 a 0.4375,0.4375 0 1 1 -0.875,0 0.4375,0.4375 0 1 1 0.875,0 z"
       transform="matrix(1.1428571,0,0,1.1428571,7.8571431,1020.1466)" />
    <path
       sodipodi:type="arc"
       style="fill:#ffffff;fill-opacity:1;stroke:none"
       id="path3872"
       sodipodi:cx="7"
       sodipodi:cy="12.6875"
       sodipodi:rx="2.875"
       sodipodi:ry="2.875"
       d="m 9.875,12.6875 a 2.875,2.875 0 1 1 -5.75,0 2.875,2.875 0 1 1 5.75,0 z"
       transform="matrix(0.86956522,0,0,0.86956522,-1.0869565,1022.3283)" />
    <path
       sodipodi:type="arc"
       style="fill:#ffffff;fill-opacity:1;stroke:none"
       id="path3872-2"
       sodipodi:cx="7"
       sodipodi:cy="12.6875"
       sodipodi:rx="2.875"
       sodipodi:ry="2.875"
       d="m 9.875,12.6875 a 2.875,2.875 0 1 1 -5.75,0 2.875,2.875 0 1 1 5.75,0 z"
       transform="matrix(0.86956522,0,0,0.86956522,12.913043,1029.3283)" />
    <rect
       style="fill:#ffffff;fill-opacity:1;stroke:none"
       id="rect3894"
       width="1"
       height="12"
       x="1"
       y="1037.8608" />
    <rect
       style="fill:#ffffff;fill-opacity:1;stroke:none"
       id="rect3894-4"
       width="1"
       height="12"
       x="22"
       y="1030.8608"
       ry="0" />
    <rect
       style="fill:#ffffff;fill-opacity:1;stroke:none"
       id="rect3894-2"
       width="1"
       height="12"
       x="-1044.3608"
       y="2.5"
       transform="matrix(0,-1,1,0,0,0)" />
  </g>
</svg>
